<svg width="16" height="16" viewBox="0 0 16 16" fill="none" xmlns="http://www.w3.org/2000/svg">
<path d="M8.34308 1.3421C11.8655 1.52068 14.6663 4.43348 14.6663 8.00031L14.6575 8.34308C14.479 11.8654 11.567 14.6662 8.00031 14.6663L7.65656 14.6575C4.24791 14.4846 1.51491 11.7518 1.3421 8.34308L1.33331 8.00031C1.33331 4.31841 4.31841 1.33331 8.00031 1.33331L8.34308 1.3421ZM8.00031 2.33331C4.87069 2.33331 2.33331 4.87069 2.33331 8.00031C2.33349 11.1298 4.8708 13.6663 8.00031 13.6663C11.1297 13.6661 13.6661 11.1297 13.6663 8.00031C13.6663 4.8708 11.1298 2.33349 8.00031 2.33331ZM8.00031 3.55597C8.16883 3.55613 8.31077 3.6824 8.32941 3.84991L8.79034 8.00519C8.8427 8.47636 8.47433 8.88879 8.00031 8.88898C7.52612 8.88898 7.15692 8.47647 7.20929 8.00519L7.6712 3.84991C7.68989 3.68233 7.83167 3.55597 8.00031 3.55597Z" fill="currentColor"/>
</svg>
