<svg width="16" height="16" viewBox="0 0 16 16" fill="none" xmlns="http://www.w3.org/2000/svg">
<path d="M8.34311 1.3421C11.8656 1.52068 14.6664 4.43348 14.6664 8.00031L14.6576 8.34308C14.479 11.8654 11.567 14.6662 8.00034 14.6663L7.65659 14.6575C4.24794 14.4846 1.51494 11.7518 1.34213 8.34308L1.33334 8.00031C1.33334 4.31841 4.31844 1.33331 8.00034 1.33331L8.34311 1.3421ZM8.00034 2.33331C4.87072 2.33331 2.33334 4.87069 2.33334 8.00031C2.33352 11.1298 4.87083 13.6663 8.00034 13.6663C11.1297 13.6661 13.6662 11.1297 13.6664 8.00031C13.6664 4.8708 11.1298 2.33349 8.00034 2.33331ZM6.66635 6.57941C6.66635 6.04694 7.26042 5.72936 7.70346 6.02472L9.83432 7.44562C10.2301 7.7095 10.2301 8.29111 9.83432 8.55499L7.70346 9.97589C7.26049 10.2712 6.66653 9.95353 6.66635 9.4212V6.57941Z" fill="currentColor"/>
</svg>
