<svg preserveAspectRatio="none" width="100%" height="100%" overflow="visible" style="display: block;" viewBox="0 0 14 14" fill="none" xmlns="http://www.w3.org/2000/svg">
<g id="Check-one (&#230;&#160;&#161;&#233;&#170;&#140;)">
<path id="Subtract" d="M7.00037 1.04932C8.64319 1.04932 10.1314 1.71653 11.2074 2.79248C12.2834 3.86845 12.9505 5.35669 12.9506 6.99951C12.9506 8.64234 12.2834 10.1306 11.2074 11.2065C10.1314 12.2825 8.64321 12.9497 7.00037 12.9497C6.61377 12.9497 6.30017 12.6361 6.30017 12.2495C6.3002 11.8629 6.61379 11.5493 7.00037 11.5493C8.25699 11.5493 9.39398 11.0414 10.2181 10.2173C11.0423 9.39313 11.5502 8.25612 11.5502 6.99951C11.5502 5.74291 11.0423 4.6059 10.2181 3.78174C9.39398 2.9576 8.25698 2.44971 7.00037 2.44971C5.74376 2.44971 4.60676 2.9576 3.78259 3.78174C2.95845 4.6059 2.45058 5.74291 2.45056 6.99951C2.45056 7.38611 2.13697 7.69971 1.75037 7.69971C1.36377 7.69971 1.05017 7.38611 1.05017 6.99951C1.05019 5.35669 1.71738 3.86845 2.79333 2.79248C3.86931 1.71653 5.35754 1.04932 7.00037 1.04932Z" fill="var(--fill-0, #999999)"/>
</g>
</svg>
