<svg width="18" height="18" viewBox="0 0 18 18" fill="none" xmlns="http://www.w3.org/2000/svg">
<path d="M7.14223 15.2477C6.05313 14.9235 5.08368 14.3215 4.31606 13.5238C4.60242 13.1844 4.775 12.7459 4.775 12.2671C4.775 11.1901 3.90196 10.3171 2.825 10.3171C2.75985 10.3171 2.69545 10.3203 2.63195 10.3265C2.54543 9.90356 2.5 9.46565 2.5 9.01709C2.5 8.33764 2.60425 7.68254 2.79763 7.0669C2.80674 7.06703 2.81586 7.06709 2.825 7.06709C3.90196 7.06709 4.775 6.19404 4.775 5.11709C4.775 4.80792 4.70304 4.51558 4.57499 4.25584C5.32669 3.5569 6.24416 3.03381 7.26193 2.75208C7.58443 3.38422 8.24168 3.8171 9 3.8171C9.75832 3.8171 10.4156 3.38422 10.7381 2.75208C11.7558 3.03381 12.6733 3.5569 13.425 4.25584C13.297 4.51558 13.225 4.80792 13.225 5.11709C13.225 6.19404 14.098 7.06709 15.175 7.06709C15.1841 7.06709 15.1933 7.06703 15.2024 7.0669C15.3957 7.68254 15.5 8.33764 15.5 9.01709C15.5 9.46565 15.4546 9.90356 15.3681 10.3265C15.3045 10.3203 15.2402 10.3171 15.175 10.3171C14.098 10.3171 13.225 11.1901 13.225 12.2671C13.225 12.7459 13.3976 13.1844 13.6839 13.5238C12.9163 14.3215 11.9469 14.9235 10.8578 15.2477C10.6064 14.4615 9.8697 13.8921 9 13.8921C8.1303 13.8921 7.39359 14.4615 7.14223 15.2477Z" stroke="currentColor" stroke-width="1.33" stroke-linejoin="round"/>
<path d="M9 11.275C10.2564 11.275 11.275 10.2564 11.275 9C11.275 7.74355 10.2564 6.725 9 6.725C7.74355 6.725 6.725 7.74355 6.725 9C6.725 10.2564 7.74355 11.275 9 11.275Z" stroke="currentColor" stroke-width="1.33" stroke-linejoin="round"/>
</svg>
