<svg width="16" height="16" viewBox="0 0 16 16" fill="none" xmlns="http://www.w3.org/2000/svg">
<path d="M7.13913 1.74431C7.46924 1.07544 7.63429 0.741014 7.88233 0.684904C7.9598 0.66738 8.0402 0.66738 8.11767 0.684904C8.36571 0.741014 8.53076 1.07544 8.86087 1.74431L10.1278 4.31135C10.2248 4.50796 10.2733 4.60627 10.3516 4.67562C10.3774 4.69846 10.4053 4.71876 10.435 4.73622C10.5251 4.78922 10.6336 4.80498 10.8506 4.83651L13.6835 5.24815C14.4216 5.35541 14.7907 5.40904 14.9207 5.6276C14.9613 5.69586 14.9862 5.77233 14.9934 5.85142C15.0167 6.10466 14.7497 6.36498 14.2155 6.88562L12.1656 8.88378C12.0086 9.03682 11.9301 9.11334 11.8884 9.2092C11.8746 9.24078 11.8639 9.27362 11.8565 9.30725C11.8339 9.40936 11.8525 9.51741 11.8895 9.73351L12.3735 12.555C12.4995 13.2901 12.5626 13.6577 12.3949 13.8489C12.3425 13.9086 12.2775 13.9558 12.2045 13.9872C11.9709 14.0876 11.6408 13.9141 10.9805 13.567L8.44673 12.2349C8.25266 12.1328 8.15563 12.0818 8.05155 12.0717C8.01726 12.0684 7.98274 12.0684 7.94845 12.0717C7.84437 12.0818 7.74734 12.1328 7.55327 12.2349L5.01945 13.567C4.35924 13.9141 4.02914 14.0876 3.79549 13.9872C3.72252 13.9558 3.65747 13.9086 3.6051 13.8489C3.43741 13.6577 3.50045 13.2901 3.62654 12.555L4.11046 9.73351C4.14752 9.51741 4.16605 9.40936 4.1435 9.30725C4.13607 9.27362 4.1254 9.24078 4.11164 9.2092C4.06987 9.11334 3.99137 9.03682 3.83436 8.88378L1.78446 6.88562C1.25034 6.36498 0.983282 6.10466 1.00657 5.85142C1.01384 5.77233 1.03869 5.69586 1.07929 5.6276C1.2093 5.40904 1.57837 5.35541 2.3165 5.24815L5.1494 4.83651C5.36638 4.80498 5.47486 4.78922 5.56501 4.73622C5.5947 4.71876 5.62263 4.69846 5.64841 4.67562C5.72667 4.60627 5.77519 4.50796 5.87222 4.31135L7.13913 1.74431Z" fill="#FFCA28"/>
</svg>
