<svg width="17" height="16" viewBox="0 0 17 16" fill="none" xmlns="http://www.w3.org/2000/svg">
<path d="M13.0046 1.16667C13.2805 1.16685 13.5046 1.39064 13.5046 1.66667V5.1657H10.0055C9.72971 5.16545 9.50571 4.94154 9.50553 4.6657C9.50553 4.38971 9.7296 4.16594 10.0055 4.1657H11.8327C10.8515 3.1848 9.49751 2.57702 8.00065 2.57683C5.00553 2.57687 2.57686 5.00553 2.57682 8.00066C2.57721 10.9955 5.00575 13.4235 8.00065 13.4235C10.9914 13.4231 13.4168 11.0016 13.4235 8.01237H14.4235C14.4168 11.5539 11.5437 14.4231 8.00065 14.4235C4.45346 14.4235 1.57721 11.5478 1.57682 8.00066L1.58561 7.6696C1.75774 4.27586 4.56414 1.57687 8.00065 1.57683L8.33073 1.58562C9.95466 1.66801 11.4185 2.35432 12.5046 3.42351V1.66667C12.5046 1.39068 12.7286 1.16692 13.0046 1.16667Z" fill="currentColor"/>
</svg>
