<svg width="11.667" height="10.5" viewBox="0 0 11.667 10.5" fill="none" xmlns="http://www.w3.org/2000/svg">
  <defs>
    <linearGradient id="g1grad" x1="4.46" y1="10.5" x2="4.46" y2="4.94" gradientUnits="userSpaceOnUse">
      <stop stop-color="white" stop-opacity="0.4"/>
      <stop offset="1" stop-color="white" stop-opacity="0.8"/>
    </linearGradient>
    <linearGradient id="g2grad" x1="3.09" y1="3.09" x2="3.09" y2="0" gradientUnits="userSpaceOnUse">
      <stop stop-color="white" stop-opacity="0.4"/>
      <stop offset="1" stop-color="white"/>
    </linearGradient>
    <linearGradient id="g3grad" x1="5.15" y1="5.56" x2="5.15" y2="2.47" gradientUnits="userSpaceOnUse">
      <stop stop-color="white" stop-opacity="0.4"/>
      <stop offset="1" stop-color="white"/>
    </linearGradient>
    <linearGradient id="g4grad" x1="5.83" y1="10.5" x2="5.83" y2="2.47" gradientUnits="userSpaceOnUse">
      <stop stop-color="white" stop-opacity="0.4"/>
      <stop offset="1" stop-color="white"/>
    </linearGradient>
  </defs>
  <!-- g1: box body -->
  <g transform="translate(1.37, 4.94)">
    <path d="M8.578 5.559H0.343C0.153 5.559 0 5.421 0 5.25V0.309C0 0.138 0.153 0 0.343 0H8.578C8.768 0 8.922 0.138 8.922 0.309V5.25C8.922 5.421 8.768 5.559 8.578 5.559Z" fill="url(#g1grad)"/>
  </g>
  <!-- g2: bow top -->
  <g transform="translate(2.74, 0)">
    <path d="M3.088 3.088C1.385 3.088 0 1.841 0 0.309C0 0.138 0.153 0 0.343 0C1.537 0 2.574 0.613 3.088 1.507C3.602 0.613 4.640 0 5.833 0C6.023 0 6.176 0.138 6.176 0.309C6.176 1.841 4.791 3.088 3.088 3.088Z" fill="url(#g2grad)"/>
  </g>
  <!-- g3: ribbon horizontal -->
  <g transform="translate(0.68, 2.47)">
    <path d="M9.951 3.088H0.343C0.153 3.088 0 2.950 0 2.779V0.309C0 0.138 0.153 0 0.343 0H9.951C10.141 0 10.294 0.138 10.294 0.309V2.779C10.294 2.950 10.141 3.088 9.951 3.088Z" fill="url(#g3grad)"/>
  </g>
  <!-- g4: ribbon vertical -->
  <g transform="translate(4.80, 2.47)">
    <path d="M2.059 8.029H0V0H2.059V8.029Z" fill="url(#g4grad)"/>
  </g>
</svg>
