<svg width="18" height="18" viewBox="0 0 18 18" fill="none" xmlns="http://www.w3.org/2000/svg">
  <!-- Union inset: ~16.22% h, ~10.2% v → left=2.92 top=1.84 → glyph 12.16×14.33 centered -->
  <g transform="translate(2.92, 1.84)">
    <path d="M5.76074 0.0820646C5.99273 -0.0455675 6.28351 -0.0242594 6.49609 0.145541L11.9131 4.47855C12.0706 4.60475 12.1621 4.79621 12.1621 4.99808V13.6641C12.1618 14.0311 11.8641 14.3291 11.4971 14.3291H7.92383C7.91127 14.3298 7.89847 14.333 7.88574 14.333H4.27539C4.26256 14.333 4.24996 14.3299 4.2373 14.3291H0.665039C0.29797 14.3291 0.000324199 14.0311 0 13.6641V4.99808C0 4.79608 0.0922788 4.60475 0.25 4.47855L5.66602 0.145541L5.76074 0.0820646ZM1.33008 5.31742V12.9991H3.61035V8.97367C3.61035 8.6065 3.90826 8.30879 4.27539 8.30863H7.88574C8.25301 8.30863 8.55078 8.6064 8.55078 8.97367V12.9991H10.832V5.31742L6.08105 1.51663L1.33008 5.31742ZM4.94043 12.9991H7.2207V9.63871H4.94043V12.9991Z" fill="currentColor"/>
  </g>
</svg>
