<svg preserveAspectRatio="none" width="100%" height="100%" overflow="visible" style="display: block;" viewBox="0 0 10.4 10.4" fill="none" xmlns="http://www.w3.org/2000/svg">
<g id="Vector (Stroke)">
<path d="M10.0764 0.205051C10.3498 0.478433 10.3498 0.921648 10.0764 1.195L6.13024 5.14072L10.1949 9.205C10.4683 9.47835 10.4684 9.92157 10.195 10.1949C9.92165 10.4683 9.47843 10.4684 9.20505 10.195L5.14024 6.13062L1.19495 10.0755C0.921567 10.3488 0.478352 10.3488 0.204999 10.0754C-0.0683535 9.80206 -0.06833 9.35884 0.205051 9.08549L4.15024 5.14072L0.323621 1.31451C0.0502399 1.04115 0.0502166 0.597939 0.323569 0.324557C0.596922 0.0511759 1.04014 0.0511526 1.31352 0.324505L5.14024 4.15082L9.08648 0.204999C9.35987 -0.0683535 9.80308 -0.06833 10.0764 0.205051Z" fill="#18181B"/>
</g>
</svg>
