<svg width="18" height="18" viewBox="0 0 18 18" fill="none" xmlns="http://www.w3.org/2000/svg">
  <!-- gear outline: 14.33×13.83, positioned at ~2.5,2.73 -->
  <g transform="translate(2.5, 2.73) scale(0.9072, 0.9037)">
    <path d="M5.30723 13.1607C4.21813 12.8365 3.24868 12.2345 2.48106 11.4368C2.76742 11.0974 2.94 10.6589 2.94 10.1801C2.94 9.10314 2.06696 8.23009 0.99 8.23009C0.924854 8.23009 0.860452 8.23331 0.796947 8.23955C0.710432 7.81656 0.665 7.37865 0.665 6.93009C0.665 6.25064 0.76925 5.59554 0.962632 4.9799C0.971738 4.98003 0.980861 4.98009 0.99 4.98009C2.06696 4.98009 2.94 4.10704 2.94 3.03009C2.94 2.72092 2.86804 2.42858 2.73999 2.16884C3.49169 1.4699 4.40916 0.946814 5.42693 0.665078C5.74943 1.29722 6.40668 1.7301 7.165 1.7301C7.92332 1.7301 8.58057 1.29722 8.90307 0.665078C9.92084 0.946814 10.8383 1.4699 11.59 2.16884C11.462 2.42858 11.39 2.72092 11.39 3.03009C11.39 4.10704 12.263 4.98009 13.34 4.98009C13.3491 4.98009 13.3583 4.98003 13.3674 4.9799C13.5607 5.59554 13.665 6.25064 13.665 6.93009C13.665 7.37865 13.6196 7.81656 13.5331 8.23955C13.4695 8.23331 13.4052 8.23009 13.34 8.23009C12.263 8.23009 11.39 9.10314 11.39 10.1801C11.39 10.6589 11.5626 11.0974 11.8489 11.4368C11.0813 12.2345 10.1119 12.8365 9.02276 13.1607C8.77141 12.3745 8.0347 11.8051 7.165 11.8051C6.2953 11.8051 5.55859 12.3745 5.30723 13.1607Z" stroke="currentColor" stroke-width="1.33" stroke-linejoin="round"/>
  </g>
  <!-- center circle: 5.88×5.88, positioned at ~6.72,6.72 -->
  <g transform="translate(6.72, 6.72) scale(0.7738)">
    <path d="M2.94 5.215C4.19645 5.215 5.215 4.19645 5.215 2.94C5.215 1.68355 4.19645 0.665 2.94 0.665C1.68355 0.665 0.665 1.68355 0.665 2.94C0.665 4.19645 1.68355 5.215 2.94 5.215Z" stroke="currentColor" stroke-width="1.33" stroke-linejoin="round"/>
  </g>
</svg>
