<svg preserveAspectRatio="none" width="100%" height="100%" overflow="visible" style="display: block;" viewBox="0 0 137.901 14.0055" fill="none" xmlns="http://www.w3.org/2000/svg">
<g id="Group">
<path id="path" d="M126.565 0C126.098 1.88067 125.118 3.28999 123.625 4.23733V5.88C124.217 5.67467 124.763 5.418 125.263 5.10533V14H127.106V3.33666C127.708 2.45933 128.142 1.344 128.408 0H126.565Z" fill="var(--fill-0, black)"/>
<path id="path_2" d="M136.342 3.45333H137.551V2.016H133.752V0H131.825V2.01133H128.124V3.44867H129.221C129.216 6.53801 128.693 8.95067 127.648 10.6913V12.7727C129.734 11.0787 130.798 7.97067 130.84 3.44867H131.825V9.89334H129.827V9.99134L129.823 11.186L129.827 11.3307H131.825V14H133.752V11.3307H135.726V9.89334H133.752V3.45333H134.69C134.676 7.84 135.745 10.9527 137.901 12.7867V10.6633C136.823 8.862 136.305 6.45866 136.342 3.45333Z" fill="var(--fill-0, black)"/>
<path id="path_3" d="M93.4644 6.05734V7.38267C93.4644 7.38267 96.2038 7.07 97.4264 5.44134C97.4264 5.44134 98.3691 6.75733 100.996 7.27533V5.87066C100.996 5.87066 99.5871 5.46934 98.6584 4.508H101.043V3.07066H98.2291C98.2431 2.86533 98.2618 2.52933 98.2664 2.212H100.67V0.77934H96.4838C96.5864 0.546006 96.6704 0.289333 96.7264 0H95.0791C95.0791 0 94.8038 1.13867 93.4318 1.56334V2.78133C93.4318 2.78133 94.3091 2.72067 95.1678 2.21667H96.5164C96.5164 2.45933 96.5118 2.79066 96.4838 3.07533H93.4318V4.508H95.9611C95.5551 5.08667 94.8084 5.70734 93.4644 6.05734Z" fill="var(--fill-0, black)"/>
<path id="path_4" d="M96.9679 7.45755H95.0779V14.0002H106.311V7.45755H96.9679ZM104.416 12.5629H96.9679V11.4429H104.416V12.5629ZM104.416 10.0102H96.9679V8.89021H104.416V10.0102Z" fill="var(--fill-0, black)"/>
<path id="path_5" d="M103.363 0.825781H101.589V6.52379H107.395V0.825781H103.363ZM105.617 5.09112H103.363V2.25845H105.617V5.09112Z" fill="var(--fill-0, black)"/>
<path id="path_6" d="M114.712 1.52134L114.693 1.48867H112.943L112.985 1.57734C113.205 2.05334 113.41 2.51067 113.592 2.93067C112.645 3.038 111.674 3.08933 110.708 3.07533C111.599 2.338 112.416 1.33467 113.139 0.0886678L113.191 0H111.035L111.016 0.0233276C110.297 1.12466 109.425 2.156 108.417 3.08933L108.398 4.51267H108.459C110.699 4.53601 112.598 4.44266 114.101 4.242C114.119 4.28866 114.138 4.34934 114.166 4.42401L114.325 4.886H116.215L116.187 4.802C115.804 3.738 115.305 2.63667 114.712 1.52134Z" fill="var(--fill-0, black)"/>
<path id="path_7" d="M108.877 6.76754V13.9962H110.623V11.4715H113.507V12.7829H112.097V13.9962H115.247V5.33021H108.877V6.76754ZM110.623 6.76754H113.507V7.6822H110.623V6.76754ZM110.623 9.11954H113.507V10.0389H110.623V9.11954Z" fill="var(--fill-0, black)"/>
<path id="path_8" d="M118.389 6.412H122.589V3.74266H121.147V4.97467H119.047C118.786 4.97467 118.548 4.844 118.408 4.63867C118.315 4.51267 118.263 4.35867 118.263 4.19067V3.67734C120.368 3.416 121.791 2.32401 122.538 0.662673H120.811C120.265 1.44201 119.416 1.82933 118.263 2.09533V0H116.406V4.42866C116.406 4.97466 116.63 5.474 116.989 5.83333C117.344 6.188 117.843 6.412 118.389 6.412Z" fill="var(--fill-0, black)"/>
<path id="path_9" d="M121.146 12.5622H119.191C118.878 12.5622 118.603 12.4036 118.439 12.1656C118.337 12.0209 118.276 11.8436 118.276 11.6522V10.8869C120.446 10.5556 121.883 9.3749 122.602 7.61556H120.843C120.297 8.5069 119.443 8.97356 118.276 9.26289V6.90156H116.419V11.9042C116.419 12.4362 116.619 12.9262 116.951 13.2949C117.333 13.7289 117.893 13.9996 118.519 13.9996H122.616V11.3022H121.141L121.146 12.5622Z" fill="var(--fill-0, black)"/>
<path id="path_10" d="M8.63333 6.44934L8.61 6.35133H14.4947V4.802H8.442V1.54934H13.6733V0H0.91467V1.54934H6.23467V4.788L6.15066 4.802H0.0466695V6.35133H6.048L6.02467 6.44934C5.45067 8.89467 3.42533 10.878 0 12.3387V14C3.48133 12.8707 5.93133 11.0927 7.28467 8.71733L7.35466 8.58666L7.42467 8.71733C8.68 11.074 11.0833 12.8473 14.5787 14V12.3247C11.158 10.7613 9.16067 8.78267 8.63333 6.44934Z" fill="var(--fill-0, black)"/>
<path id="polygon" d="M19.5902 2.43133L18.8108 0H17.0935L17.8681 2.43133H19.5902Z" fill="var(--fill-0, black)"/>
<path id="polygon_2" d="M26.2639 0H24.3646V0.597333H20.4586V1.93201H24.3646V2.46867H20.9019V3.808H29.7266V2.46867H26.2639V1.93201H30.1653V0.597333H26.2639V0Z" fill="var(--fill-0, black)"/>
<path id="path_11" d="M27.752 10.5055H20.9107V14.0008H29.6513V10.5055H27.752ZM22.81 12.6615V11.8448H27.7567V12.6615H22.81Z" fill="var(--fill-0, black)"/>
<path id="path_12" d="M29.5824 7.47987V4.19453H20.9818V7.53121H29.5824V7.47987ZM22.8811 5.52921H27.6878V6.19186H22.8811V5.52921Z" fill="var(--fill-0, black)"/>
<path id="path_13" d="M28.523 7.70453H26.801L26.4743 8.73119H24.0896L23.763 7.70453H22.041L22.3676 8.73119H20.8136V7.4292L19.6143 6.3652C20.039 5.4552 20.235 4.67118 20.305 4.35385V2.76719H15.5823V4.35385H18.331C17.701 7.19118 15.5823 8.50252 15.5823 8.50252V10.2385C16.301 9.98186 16.9076 9.61786 17.4303 9.20252V13.9999H19.3296V8.5072L20.3936 9.45453V10.0752H30.161V8.73586H28.1916L28.523 7.70453Z" fill="var(--fill-0, black)"/>
<path id="rect" d="M39.4147 4.19818H37.5156V14.0024H39.4147V4.19818Z" fill="var(--fill-0, black)"/>
<path id="path_14" d="M40.759 0H40.5817H36.251H36.167C36.167 0 35.131 3.14067 31.1737 5.09601V6.86001C31.1737 6.86001 35.4204 5.53 37.4644 1.57734H39.4524C41.5057 5.52534 45.7477 6.86001 45.7477 6.86001V5.09601C41.7904 3.14067 40.759 0 40.759 0Z" fill="var(--fill-0, black)"/>
<path id="path_15" d="M55.1176 1.03133V0.0186707L52.9803 0V1.03133C52.9943 8.95066 46.7596 12.1147 46.7596 12.1147V14C52.369 11.5453 53.8623 7 53.8623 7C53.9276 6.874 53.9883 6.73866 54.049 6.58933C54.1096 6.73866 54.1703 6.874 54.2356 7C54.2356 7 55.729 11.5453 61.3383 14V12.1147C61.3383 12.1147 55.1083 8.95066 55.1176 1.03133Z" fill="var(--fill-0, black)"/>
<path id="path_16" d="M69.6318 6.38385V11.5779H76.2444V6.38385H74.4618H71.4144H69.6318ZM74.4618 7.8212V10.1405H71.4144V7.8212H74.4618Z" fill="var(--fill-0, black)"/>
<path id="path_17" d="M70.8547 1.99668C70.8687 3.25201 70.3274 4.17601 69.2494 4.75468L69.2167 4.76868V6.15468L69.2914 6.14068C71.4661 5.61335 72.5814 4.21801 72.6001 1.99668V1.93135H74.4621V4.37201H72.8614V5.80935H76.2447V0.49401H69.1141V1.93135H70.8547V1.99668Z" fill="var(--fill-0, black)"/>
<path id="path_18" d="M80.1122 5.77734C79.5942 6.608 78.9642 7.43401 78.2409 8.23201L78.2082 8.26933V9.81867H78.5349C80.1822 9.81867 81.6616 9.69267 82.9309 9.45L83.0336 9.43133V7.89133L82.8842 7.91933C82.0256 8.06867 81.1809 8.15267 80.3689 8.17134C81.1856 7.33134 81.8902 6.35599 82.4596 5.27333C82.8656 4.51266 83.2062 3.68667 83.4816 2.81867L83.5376 2.65533H81.6242L81.5962 2.73933C81.4096 3.262 81.2042 3.76133 80.9756 4.228C80.6069 4.26067 80.2802 4.284 79.9816 4.28867C80.8216 3.16867 81.5076 1.778 82.0162 0.158665L82.0676 0H79.9956L79.9722 0.0886678C79.5476 1.62867 78.8756 3.05667 77.9702 4.33067L77.9516 4.36334V5.824H78.0729C78.8149 5.84734 79.4962 5.82867 80.1122 5.77734Z" fill="var(--fill-0, black)"/>
<path id="path_19" d="M76.9253 12.3993H67.3353L67.3213 9.62266H68.9359V8.18067H67.3213V6.17866H68.7073V4.74134H66.7893V2.912H68.4973V1.47H66.7893V0H65.0019V1.46534H63.0419V2.90734H65.0019V4.73666H62.6219V6.17401H65.5339V11.7693C65.3706 11.6573 65.2073 11.522 65.0766 11.3773C65.0626 11.3587 65.0486 11.3447 65.0346 11.326C64.9833 11.27 64.9413 11.2093 64.8993 11.144C64.8853 11.1253 64.8666 11.0973 64.8526 11.074C64.8153 11.0087 64.7779 10.9433 64.7499 10.8733C64.7406 10.8547 64.7313 10.8407 64.7266 10.8173C64.8059 10.3647 64.8666 9.814 64.8666 9.17V6.93H63.1306V9.36133C63.1586 10.6867 62.9066 11.6387 62.3746 12.18L62.3419 12.2127V13.9907L62.5006 13.9207C63.1959 13.608 63.6999 13.2067 64.0639 12.6747C64.3999 12.9967 65.0206 13.5007 65.2679 13.636C65.6833 13.874 66.1266 13.9907 66.5933 13.9907H66.7473H76.9253V12.3993Z" fill="var(--fill-0, black)"/>
<path id="path_20" d="M91.7602 6.65547C91.8209 6.3288 91.8582 5.9508 91.8582 5.9508V4.51347H89.7022C90.2669 3.69214 90.7056 2.48346 90.8362 2.11013C90.8502 2.07746 90.8642 2.02613 90.8642 2.02613V0.588802H82.9916V2.02613H84.3262C84.3309 2.1568 84.3776 4.2848 84.1302 6.5808C83.9576 8.1908 83.6216 9.88013 82.9916 11.0141V10.4308C80.0516 11.0468 77.9516 10.9721 77.9516 10.9721V12.6941C79.8136 12.7035 81.6709 12.3581 82.5529 12.1668V14.0055C82.5529 14.0055 84.6109 13.1188 85.6469 8.79747C85.6982 8.57347 85.7449 8.3588 85.7869 8.13947C86.0529 8.8908 86.5102 9.8288 87.2942 10.7668C86.0856 11.8588 84.9096 12.3535 84.9096 12.3535V14.0055C86.4449 13.4781 87.6396 12.7781 88.5729 12.0128C89.5389 12.7875 90.7942 13.4968 92.4416 14.0055V12.1715C92.4416 12.1715 91.2049 11.7561 89.9029 10.6735C91.1442 9.14746 91.5969 7.5748 91.7602 6.65547ZM88.5822 9.3108C88.0129 8.57347 87.5182 7.67747 87.2149 6.5808H86.0062C86.1136 5.4748 86.1556 4.10746 86.2022 2.02146H88.7736C88.5122 2.99679 87.6909 4.51347 87.6909 4.51347V5.9508H89.8609C89.7116 7.29946 89.2122 8.4148 88.5822 9.3108Z" fill="var(--fill-0, black)"/>
</g>
</svg>
