<svg preserveAspectRatio="none" width="100%" height="100%" overflow="visible" style="display: block;" viewBox="0 0 34.7626 34.9868" fill="none" xmlns="http://www.w3.org/2000/svg">
<g id="Group" filter="url(#filter0_di_0_385)">
<g id="Group_2" filter="url(#filter1_i_0_385)">
<path id="&#231;&#159;&#162;&#233;&#135;&#143; 2" fill-rule="evenodd" clip-rule="evenodd" d="M28.589 6.09966C25.8842 2.62198 20.4487 -2.53015 10.0414 1.59155C-0.365901 5.71325 -1.52513 20.8605 2.69961 26.3217C6.92435 31.783 14.3202 34.7145 19.4723 33.9417C24.6245 33.1689 26.0671 31.2369 27.3293 29.82C28.589 28.4032 30.9075 25.5695 30.9075 21.6848C30.9075 17.8027 31.5515 15.0644 31.5515 13.8278C31.5515 12.5913 31.2939 9.57734 28.589 6.09966Z" fill="url(#paint0_radial_0_385)" fill-opacity="0.6"/>
<path id="&#231;&#159;&#162;&#233;&#135;&#143; 2_2" fill-rule="evenodd" clip-rule="evenodd" d="M28.589 6.09966C25.8842 2.62198 20.4487 -2.53015 10.0414 1.59155C-0.365901 5.71325 -1.52513 20.8605 2.69961 26.3217C6.92435 31.783 14.3202 34.7145 19.4723 33.9417C24.6245 33.1689 26.0671 31.2369 27.3293 29.82C28.589 28.4032 30.9075 25.5695 30.9075 21.6848C30.9075 17.8027 31.5515 15.0644 31.5515 13.8278C31.5515 12.5913 31.2939 9.57734 28.589 6.09966Z" fill="url(#paint1_radial_0_385)" fill-opacity="0.4"/>
<path id="&#231;&#159;&#162;&#233;&#135;&#143; 2_3" fill-rule="evenodd" clip-rule="evenodd" d="M28.589 6.09966C25.8842 2.62198 20.4487 -2.53015 10.0414 1.59155C-0.365901 5.71325 -1.52513 20.8605 2.69961 26.3217C6.92435 31.783 14.3202 34.7145 19.4723 33.9417C24.6245 33.1689 26.0671 31.2369 27.3293 29.82C28.589 28.4032 30.9075 25.5695 30.9075 21.6848C30.9075 17.8027 31.5515 15.0644 31.5515 13.8278C31.5515 12.5913 31.2939 9.57734 28.589 6.09966Z" fill="url(#paint2_radial_0_385)" fill-opacity="0.34"/>
<path id="&#231;&#159;&#162;&#233;&#135;&#143; 2_4" fill-rule="evenodd" clip-rule="evenodd" d="M28.589 6.09966C25.8842 2.62198 20.4487 -2.53015 10.0414 1.59155C-0.365901 5.71325 -1.52513 20.8605 2.69961 26.3217C6.92435 31.783 14.3202 34.7145 19.4723 33.9417C24.6245 33.1689 26.0671 31.2369 27.3293 29.82C28.589 28.4032 30.9075 25.5695 30.9075 21.6848C30.9075 17.8027 31.5515 15.0644 31.5515 13.8278C31.5515 12.5913 31.2939 9.57734 28.589 6.09966Z" fill="url(#paint3_radial_0_385)" fill-opacity="0.2"/>
<g id="&#231;&#159;&#162;&#233;&#135;&#143; 2_5">
</g>
<path id="&#231;&#159;&#162;&#233;&#135;&#143; 2_6" fill-rule="evenodd" clip-rule="evenodd" d="M28.589 6.09966C25.8842 2.62198 20.4487 -2.53015 10.0414 1.59155C-0.365901 5.71325 -1.52513 20.8605 2.69961 26.3217C6.92435 31.783 14.3202 34.7145 19.4723 33.9417C24.6245 33.1689 26.0671 31.2369 27.3293 29.82C28.589 28.4032 30.9075 25.5695 30.9075 21.6848C30.9075 17.8027 31.5515 15.0644 31.5515 13.8278C31.5515 12.5913 31.2939 9.57734 28.589 6.09966Z" fill="url(#paint4_radial_0_385)" fill-opacity="0.6"/>
</g>
<g id="&#231;&#159;&#162;&#233;&#135;&#143; 2_7">
</g>
<g id="Group_3" filter="url(#filter2_i_0_385)">
<g id="&#231;&#159;&#162;&#233;&#135;&#143; 2_8">
</g>
<g id="&#231;&#159;&#162;&#233;&#135;&#143; 2_9">
</g>
<g id="&#231;&#159;&#162;&#233;&#135;&#143; 2_10">
</g>
<g id="&#231;&#159;&#162;&#233;&#135;&#143; 2_11">
</g>
<g id="&#231;&#159;&#162;&#233;&#135;&#143; 2_12">
</g>
<g id="&#231;&#159;&#162;&#233;&#135;&#143; 2_13">
</g>
<path id="&#231;&#159;&#162;&#233;&#135;&#143; 2_14" fill-rule="evenodd" clip-rule="evenodd" d="M28.589 6.09966C25.8842 2.62198 20.4487 -2.53015 10.0414 1.59155C-0.365901 5.71325 -1.52513 20.8605 2.69961 26.3217C6.92435 31.783 14.3202 34.7145 19.4723 33.9417C24.6245 33.1689 26.0671 31.2369 27.3293 29.82C28.589 28.4032 30.9075 25.5695 30.9075 21.6848C30.9075 17.8027 31.5515 15.0644 31.5515 13.8278C31.5515 12.5913 31.2939 9.57734 28.589 6.09966Z" fill="var(--fill-0, white)" fill-opacity="0.01"/>
</g>
<path id="&#231;&#159;&#162;&#233;&#135;&#143; 2_15" d="M10.0414 1.5912C-0.365907 5.7129 -1.52513 20.8601 2.69961 26.3214C6.92435 31.7826 14.3202 34.7142 19.4723 33.9414C24.6245 33.1686 26.0671 31.2365 27.3293 29.8197C28.589 28.4028 30.9075 25.5692 30.9075 21.6845C30.9075 17.8024 31.5515 15.064 31.5515 13.8275C31.5515 12.591 31.2939 9.57699 28.589 6.09931C25.8842 2.62163 20.4487 -2.53049 10.0414 1.5912Z" stroke="url(#paint5_linear_0_385)" stroke-opacity="0.6" stroke-width="0.128803"/>
<path id="&#231;&#159;&#162;&#233;&#135;&#143; 2_16" fill-rule="evenodd" clip-rule="evenodd" d="M28.589 6.09931C25.8842 2.62163 20.4487 -2.53049 10.0414 1.5912C-0.365907 5.7129 -1.52513 20.8601 2.69961 26.3214C6.92435 31.7826 14.3202 34.7142 19.4723 33.9414C24.6245 33.1686 26.0671 31.2365 27.3293 29.8197C28.589 28.4028 30.9075 25.5692 30.9075 21.6845C30.9075 17.8024 31.5515 15.064 31.5515 13.8275C31.5515 12.591 31.2939 9.57699 28.589 6.09931Z" fill="url(#paint6_radial_0_385)" fill-opacity="0.6"/>
<path id="&#231;&#159;&#162;&#233;&#135;&#143; 2_17" fill-rule="evenodd" clip-rule="evenodd" d="M28.589 6.09931C25.8842 2.62163 20.4487 -2.53049 10.0414 1.5912C-0.365907 5.7129 -1.52513 20.8601 2.69961 26.3214C6.92435 31.7826 14.3202 34.7142 19.4723 33.9414C24.6245 33.1686 26.0671 31.2365 27.3293 29.8197C28.589 28.4028 30.9075 25.5692 30.9075 21.6845C30.9075 17.8024 31.5515 15.064 31.5515 13.8275C31.5515 12.591 31.2939 9.57699 28.589 6.09931Z" fill="url(#paint7_radial_0_385)" fill-opacity="0.4"/>
<path id="&#231;&#159;&#162;&#233;&#135;&#143; 2_18" fill-rule="evenodd" clip-rule="evenodd" d="M28.589 6.09931C25.8842 2.62163 20.4487 -2.53049 10.0414 1.5912C-0.365907 5.7129 -1.52513 20.8601 2.69961 26.3214C6.92435 31.7826 14.3202 34.7142 19.4723 33.9414C24.6245 33.1686 26.0671 31.2365 27.3293 29.8197C28.589 28.4028 30.9075 25.5692 30.9075 21.6845C30.9075 17.8024 31.5515 15.064 31.5515 13.8275C31.5515 12.591 31.2939 9.57699 28.589 6.09931Z" fill="url(#paint8_radial_0_385)" fill-opacity="0.4"/>
<g id="&#231;&#159;&#162;&#233;&#135;&#143; 2_19">
</g>
<path id="&#231;&#159;&#162;&#233;&#135;&#143; 2_20" fill-rule="evenodd" clip-rule="evenodd" d="M28.589 6.09931C25.8842 2.62163 20.4487 -2.53049 10.0414 1.5912C-0.365907 5.7129 -1.52513 20.8601 2.69961 26.3214C6.92435 31.7826 14.3202 34.7142 19.4723 33.9414C24.6245 33.1686 26.0671 31.2365 27.3293 29.8197C28.589 28.4028 30.9075 25.5692 30.9075 21.6845C30.9075 17.8024 31.5515 15.064 31.5515 13.8275C31.5515 12.591 31.2939 9.57699 28.589 6.09931Z" fill="url(#paint9_radial_0_385)" fill-opacity="0.4"/>
<path id="&#231;&#159;&#162;&#233;&#135;&#143; 2_21" fill-rule="evenodd" clip-rule="evenodd" d="M28.589 6.09931C25.8842 2.62163 20.4487 -2.53049 10.0414 1.5912C-0.365907 5.7129 -1.52513 20.8601 2.69961 26.3214C6.92435 31.7826 14.3202 34.7142 19.4723 33.9414C24.6245 33.1686 26.0671 31.2365 27.3293 29.8197C28.589 28.4028 30.9075 25.5692 30.9075 21.6845C30.9075 17.8024 31.5515 15.064 31.5515 13.8275C31.5515 12.591 31.2939 9.57699 28.589 6.09931Z" fill="url(#paint10_radial_0_385)" fill-opacity="0.4"/>
<path id="&#231;&#159;&#162;&#233;&#135;&#143; 2_22" fill-rule="evenodd" clip-rule="evenodd" d="M28.589 6.09931C25.8842 2.62163 20.4487 -2.53049 10.0414 1.5912C-0.365907 5.7129 -1.52513 20.8601 2.69961 26.3214C6.92435 31.7826 14.3202 34.7142 19.4723 33.9414C24.6245 33.1686 26.0671 31.2365 27.3293 29.8197C28.589 28.4028 30.9075 25.5692 30.9075 21.6845C30.9075 17.8024 31.5515 15.064 31.5515 13.8275C31.5515 12.591 31.2939 9.57699 28.589 6.09931Z" fill="url(#paint11_radial_0_385)" fill-opacity="0.2"/>
<path id="&#231;&#159;&#162;&#233;&#135;&#143; 2_23" fill-rule="evenodd" clip-rule="evenodd" d="M28.589 6.09931C25.8842 2.62163 20.4487 -2.53049 10.0414 1.5912C-0.365907 5.7129 -1.52513 20.8601 2.69961 26.3214C6.92435 31.7826 14.3202 34.7142 19.4723 33.9414C24.6245 33.1686 26.0671 31.2365 27.3293 29.8197C28.589 28.4028 30.9075 25.5692 30.9075 21.6845C30.9075 17.8024 31.5515 15.064 31.5515 13.8275C31.5515 12.591 31.2939 9.57699 28.589 6.09931ZM7.63534 2.98743C8.40043 2.48252 9.21704 2.05747 10.0903 1.71228C14.2893 0.0481446 18.0375 -0.24295 21.3374 0.838995C24.0165 1.71486 26.3994 3.49491 28.4886 6.17917C30.3562 8.58006 31.3325 11.0144 31.4175 13.4771C31.4201 13.5931 31.4227 13.7116 31.4227 13.8275C31.4227 14.1212 31.3609 14.7497 31.2321 15.7183C30.9307 18.0368 30.7787 20.0255 30.7787 21.6845C30.7787 21.754 30.7787 21.8236 30.7761 21.8906C30.7194 24.531 29.537 27.1432 27.2314 29.7321C27.1851 29.7836 27.1181 29.8635 27.0254 29.9691C26.1624 30.948 25.3535 31.6693 24.5987 32.133C23.2952 32.9341 21.5796 33.4931 19.4517 33.8126C16.8164 34.2093 13.9287 33.7198 10.7884 32.3519C8.2098 31.2236 6.01242 29.7269 4.19888 27.8567C3.70427 27.3467 3.24058 26.8083 2.80265 26.2441C1.75419 24.8891 1.06381 23.0446 0.728921 20.7159C0.710889 20.5845 0.692853 20.4557 0.677397 20.3243C0.401758 18.0909 0.512531 15.8085 1.00971 13.4823C1.57902 10.8135 2.58111 8.48732 4.0134 6.50118C5.04898 5.06889 6.25715 3.89678 7.63534 2.98743Z" fill="url(#paint12_linear_0_385)"/>
<g id="Group_4" filter="url(#filter3_i_0_385)">
<g id="&#231;&#159;&#162;&#233;&#135;&#143; 3">
</g>
<g id="&#231;&#159;&#162;&#233;&#135;&#143; 3_2">
</g>
<g id="&#231;&#159;&#162;&#233;&#135;&#143; 3_3">
</g>
<path id="&#231;&#159;&#162;&#233;&#135;&#143; 3_4" fill-rule="evenodd" clip-rule="evenodd" d="M27.7956 8.77557C25.7348 7.61634 21.2215 5.6405 17.1049 5.29788C12.468 4.91148 8.60395 5.9419 5.77028 8.77557C2.93661 11.6092 0.746959 17.3796 4.35344 25.0047C7.95993 32.6299 15.0441 32.4753 19.1658 31.3161C23.2875 30.1569 29.0836 28.096 32.1749 22.2999C35.4851 16.0967 30.5855 10.4062 27.7956 8.77557Z" fill="url(#paint13_radial_0_385)" fill-opacity="0.8"/>
</g>
<g id="&#231;&#159;&#162;&#233;&#135;&#143; 3_5">
</g>
<g id="Group_5" filter="url(#filter4_i_0_385)">
<path id="&#231;&#159;&#162;&#233;&#135;&#143; 4" fill-rule="evenodd" clip-rule="evenodd" d="M32.3475 20.7488C32.3475 17.2866 30.9487 13.6544 29.4365 11.7867C25.0572 6.377 25.1242 1.86889 20.8067 1.86889C14.7427 1.86374 3.8047 2.77051 2.38787 14.1052C1.56353 20.687 2.85156 38.2661 24.3617 30.2803C29.5885 28.3405 32.3475 24.2111 32.3475 20.7488Z" fill="url(#paint14_radial_0_385)"/>
</g>
<g id="&#231;&#159;&#162;&#233;&#135;&#143; 4_2">
</g>
<g id="Group_6" filter="url(#filter5_i_0_385)">
<path id="&#231;&#159;&#162;&#233;&#135;&#143; 1" fill-rule="evenodd" clip-rule="evenodd" d="M23.4369 3.56595C21.1184 2.92194 18.8773 1.68543 15.0647 1.89151C11.2521 2.0976 4.27099 4.9055 2.8284 12.8398C1.3858 20.774 4.43328 29.0921 9.26855 31.5162C14.1064 33.9429 23.9006 31.8563 28.3314 28.1467C32.2393 24.8751 35.2172 20.1738 34.1275 14.4936C32.9683 8.43986 28.2876 4.91323 23.4369 3.56595Z" fill="url(#paint15_radial_0_385)" fill-opacity="0.6"/>
<path id="&#231;&#159;&#162;&#233;&#135;&#143; 1_2" fill-rule="evenodd" clip-rule="evenodd" d="M23.4369 3.56595C21.1184 2.92194 18.8773 1.68543 15.0647 1.89151C11.2521 2.0976 4.27099 4.9055 2.8284 12.8398C1.3858 20.774 4.43328 29.0921 9.26855 31.5162C14.1064 33.9429 23.9006 31.8563 28.3314 28.1467C32.2393 24.8751 35.2172 20.1738 34.1275 14.4936C32.9683 8.43986 28.2876 4.91323 23.4369 3.56595Z" fill="url(#paint16_radial_0_385)" fill-opacity="0.4"/>
<path id="&#231;&#159;&#162;&#233;&#135;&#143; 1_3" fill-rule="evenodd" clip-rule="evenodd" d="M23.4369 3.56595C21.1184 2.92194 18.8773 1.68543 15.0647 1.89151C11.2521 2.0976 4.27099 4.9055 2.8284 12.8398C1.3858 20.774 4.43328 29.0921 9.26855 31.5162C14.1064 33.9429 23.9006 31.8563 28.3314 28.1467C32.2393 24.8751 35.2172 20.1738 34.1275 14.4936C32.9683 8.43986 28.2876 4.91323 23.4369 3.56595Z" fill="url(#paint17_radial_0_385)" fill-opacity="0.34"/>
<path id="&#231;&#159;&#162;&#233;&#135;&#143; 1_4" fill-rule="evenodd" clip-rule="evenodd" d="M23.4369 3.56595C21.1184 2.92194 18.8773 1.68543 15.0647 1.89151C11.2521 2.0976 4.27099 4.9055 2.8284 12.8398C1.3858 20.774 4.43328 29.0921 9.26855 31.5162C14.1064 33.9429 23.9006 31.8563 28.3314 28.1467C32.2393 24.8751 35.2172 20.1738 34.1275 14.4936C32.9683 8.43986 28.2876 4.91323 23.4369 3.56595Z" fill="url(#paint18_radial_0_385)" fill-opacity="0.2"/>
<path id="&#231;&#159;&#162;&#233;&#135;&#143; 1_5" fill-rule="evenodd" clip-rule="evenodd" d="M23.4369 3.56595C21.1184 2.92194 18.8773 1.68543 15.0647 1.89151C11.2521 2.0976 4.27099 4.9055 2.8284 12.8398C1.3858 20.774 4.43328 29.0921 9.26855 31.5162C14.1064 33.9429 23.9006 31.8563 28.3314 28.1467C32.2393 24.8751 35.2172 20.1738 34.1275 14.4936C32.9683 8.43986 28.2876 4.91323 23.4369 3.56595Z" fill="url(#paint19_radial_0_385)" fill-opacity="0.4"/>
<path id="&#231;&#159;&#162;&#233;&#135;&#143; 1_6" fill-rule="evenodd" clip-rule="evenodd" d="M23.4369 3.56595C21.1184 2.92194 18.8773 1.68543 15.0647 1.89151C11.2521 2.0976 4.27099 4.9055 2.8284 12.8398C1.3858 20.774 4.43328 29.0921 9.26855 31.5162C14.1064 33.9429 23.9006 31.8563 28.3314 28.1467C32.2393 24.8751 35.2172 20.1738 34.1275 14.4936C32.9683 8.43986 28.2876 4.91323 23.4369 3.56595Z" fill="url(#paint20_radial_0_385)" fill-opacity="0.8"/>
<g id="&#231;&#159;&#162;&#233;&#135;&#143; 1_7">
</g>
<path id="&#231;&#159;&#162;&#233;&#135;&#143; 1_8" fill-rule="evenodd" clip-rule="evenodd" d="M23.4369 3.56595C21.1184 2.92194 18.8773 1.68543 15.0647 1.89151C11.2521 2.0976 4.27099 4.9055 2.8284 12.8398C1.3858 20.774 4.43328 29.0921 9.26855 31.5162C14.1064 33.9429 23.9006 31.8563 28.3314 28.1467C32.2393 24.8751 35.2172 20.1738 34.1275 14.4936C32.9683 8.43986 28.2876 4.91323 23.4369 3.56595Z" fill="url(#paint21_radial_0_385)"/>
</g>
<g id="&#231;&#159;&#162;&#233;&#135;&#143; 1_9">
</g>
<g id="&#231;&#159;&#162;&#233;&#135;&#143; 1_10">
</g>
<path id="&#231;&#159;&#162;&#233;&#135;&#143; 1_11" fill-rule="evenodd" clip-rule="evenodd" d="M23.4369 3.56503C21.1184 2.92102 18.8773 1.68451 15.0647 1.89059C11.2521 2.09668 4.27101 4.90459 2.82841 12.8389C1.38582 20.7731 4.4333 29.0912 9.26856 31.5153C14.1064 33.9419 23.9006 31.8553 28.3314 28.1458C32.2393 24.8742 35.2172 20.1729 34.1276 14.4927C32.9683 8.43894 28.2876 4.91231 23.4369 3.56503Z" fill="url(#paint22_radial_0_385)" fill-opacity="0.4"/>
<path id="&#231;&#159;&#162;&#233;&#135;&#143; 1_12" fill-rule="evenodd" clip-rule="evenodd" d="M23.4369 3.56503C21.1184 2.92102 18.8773 1.68451 15.0647 1.89059C11.2521 2.09668 4.27101 4.90459 2.82841 12.8389C1.38582 20.7731 4.4333 29.0912 9.26856 31.5153C14.1064 33.9419 23.9006 31.8553 28.3314 28.1458C32.2393 24.8742 35.2172 20.1729 34.1276 14.4927C32.9683 8.43894 28.2876 4.91231 23.4369 3.56503Z" fill="url(#paint23_radial_0_385)" fill-opacity="0.4"/>
<g id="&#231;&#159;&#162;&#233;&#135;&#143; 1_13">
</g>
<path id="&#231;&#159;&#162;&#233;&#135;&#143; 1_14" fill-rule="evenodd" clip-rule="evenodd" d="M23.4369 3.56503C21.1184 2.92102 18.8773 1.68451 15.0647 1.89059C11.2521 2.09668 4.27101 4.90459 2.82841 12.8389C1.38582 20.7731 4.4333 29.0912 9.26856 31.5153C14.1064 33.9419 23.9006 31.8553 28.3314 28.1458C32.2393 24.8742 35.2172 20.1729 34.1276 14.4927C32.9683 8.43894 28.2876 4.91231 23.4369 3.56503Z" fill="url(#paint24_radial_0_385)" fill-opacity="0.4"/>
<path id="&#231;&#159;&#162;&#233;&#135;&#143; 1_15" fill-rule="evenodd" clip-rule="evenodd" d="M23.4369 3.56503C21.1184 2.92102 18.8773 1.68451 15.0647 1.89059C11.2521 2.09668 4.27101 4.90459 2.82841 12.8389C1.38582 20.7731 4.4333 29.0912 9.26856 31.5153C14.1064 33.9419 23.9006 31.8553 28.3314 28.1458C32.2393 24.8742 35.2172 20.1729 34.1276 14.4927C32.9683 8.43894 28.2876 4.91231 23.4369 3.56503Z" fill="url(#paint25_radial_0_385)" fill-opacity="0.4"/>
<path id="&#231;&#159;&#162;&#233;&#135;&#143; 1_16" fill-rule="evenodd" clip-rule="evenodd" d="M23.4369 3.56503C21.1184 2.92102 18.8773 1.68451 15.0647 1.89059C11.2521 2.09668 4.27101 4.90459 2.82841 12.8389C1.38582 20.7731 4.4333 29.0912 9.26856 31.5153C14.1064 33.9419 23.9006 31.8553 28.3314 28.1458C32.2393 24.8742 35.2172 20.1729 34.1276 14.4927C32.9683 8.43894 28.2876 4.91231 23.4369 3.56503Z" fill="url(#paint26_radial_0_385)" fill-opacity="0.2"/>
<g id="&#231;&#159;&#162;&#233;&#135;&#143; 1_17">
</g>
<g id="Group_7" filter="url(#filter6_i_0_385)">
<g id="&#231;&#159;&#162;&#233;&#135;&#143; 1_18">
</g>
<g id="&#231;&#159;&#162;&#233;&#135;&#143; 1_19">
</g>
<g id="&#231;&#159;&#162;&#233;&#135;&#143; 1_20">
</g>
<g id="&#231;&#159;&#162;&#233;&#135;&#143; 1_21">
</g>
<g id="&#231;&#159;&#162;&#233;&#135;&#143; 1_22">
</g>
<g id="&#231;&#159;&#162;&#233;&#135;&#143; 1_23">
</g>
<path id="&#231;&#159;&#162;&#233;&#135;&#143; 1_24" fill-rule="evenodd" clip-rule="evenodd" d="M23.4369 3.56595C21.1184 2.92194 18.8773 1.68543 15.0647 1.89151C11.2521 2.0976 4.27099 4.9055 2.8284 12.8398C1.3858 20.774 4.43328 29.0921 9.26855 31.5162C14.1064 33.9429 23.9006 31.8563 28.3314 28.1467C32.2393 24.8751 35.2172 20.1738 34.1275 14.4936C32.9683 8.43986 28.2876 4.91323 23.4369 3.56595Z" fill="var(--fill-0, white)" fill-opacity="0.01"/>
</g>
<path id="&#231;&#159;&#162;&#233;&#135;&#143; 1_25" d="M15.0647 1.89059C11.2521 2.09668 4.27101 4.90459 2.82841 12.8389C1.38582 20.7731 4.4333 29.0912 9.26856 31.5153C14.1064 33.9419 23.9006 31.8553 28.3314 28.1458C32.2393 24.8742 35.2172 20.1729 34.1276 14.4927C32.9683 8.43894 28.2876 4.91231 23.4369 3.56503C21.1184 2.92102 18.8773 1.68451 15.0647 1.89059Z" stroke="url(#paint27_linear_0_385)" stroke-opacity="0.6" stroke-width="0.128803"/>
<g id="Group_8" filter="url(#filter7_i_0_385)">
<g id="&#231;&#159;&#162;&#233;&#135;&#143; 1_26">
</g>
<g id="&#231;&#159;&#162;&#233;&#135;&#143; 1_27">
</g>
<g id="&#231;&#159;&#162;&#233;&#135;&#143; 1_28">
</g>
<g id="&#231;&#159;&#162;&#233;&#135;&#143; 1_29">
</g>
<g id="&#231;&#159;&#162;&#233;&#135;&#143; 1_30">
</g>
<g id="&#231;&#159;&#162;&#233;&#135;&#143; 1_31">
</g>
<path id="&#231;&#159;&#162;&#233;&#135;&#143; 1_32" fill-rule="evenodd" clip-rule="evenodd" d="M23.4369 3.56595C21.1184 2.92194 18.8773 1.68543 15.0647 1.89151C11.2521 2.0976 4.27099 4.9055 2.8284 12.8398C1.3858 20.774 4.43328 29.0921 9.26855 31.5162C14.1064 33.9429 23.9006 31.8563 28.3314 28.1467C32.2393 24.8751 35.2172 20.1738 34.1275 14.4936C32.9683 8.43986 28.2876 4.91323 23.4369 3.56595Z" fill="var(--fill-0, white)" fill-opacity="0.01"/>
</g>
<path id="&#231;&#159;&#162;&#233;&#135;&#143; 1_33" d="M15.0647 1.89059C11.2521 2.09668 4.27101 4.90459 2.82841 12.8389C1.38582 20.7731 4.4333 29.0912 9.26856 31.5153C14.1064 33.9419 23.9006 31.8553 28.3314 28.1458C32.2393 24.8742 35.2172 20.1729 34.1276 14.4927C32.9683 8.43894 28.2876 4.91231 23.4369 3.56503C21.1184 2.92102 18.8773 1.68451 15.0647 1.89059Z" stroke="url(#paint28_linear_0_385)" stroke-opacity="0.6" stroke-width="0.128803"/>
<g id="Group_9" opacity="0.52">
<path id="&#230;&#164;&#173;&#229;&#156;&#134; 1" d="M17.0258 29.949C24.4951 29.949 30.5502 23.8939 30.5502 16.4246C30.5502 8.95536 24.4951 2.90032 17.0258 2.90032C9.55657 2.90032 3.50153 8.95536 3.50153 16.4246C3.50153 23.8939 9.55657 29.949 17.0258 29.949Z" fill="url(#paint29_radial_0_385)"/>
</g>
</g>
<defs>
<filter id="filter0_di_0_385" x="-0.171737" y="-0.515212" width="34.9344" height="35.502" filterUnits="userSpaceOnUse" color-interpolation-filters="sRGB">
<feFlood flood-opacity="0" result="BackgroundImageFix"/>
<feColorMatrix in="SourceAlpha" type="matrix" values="0 0 0 0 0 0 0 0 0 0 0 0 0 0 0 0 0 0 127 0" result="hardAlpha"/>
<feOffset dy="0.515212"/>
<feGaussianBlur stdDeviation="0.171737"/>
<feComposite in2="hardAlpha" operator="out"/>
<feColorMatrix type="matrix" values="0 0 0 0 1 0 0 0 0 0.27451 0 0 0 0 0 0 0 0 0.25 0"/>
<feBlend mode="normal" in2="BackgroundImageFix" result="effect1_dropShadow_0_385"/>
<feBlend mode="normal" in="SourceGraphic" in2="effect1_dropShadow_0_385" result="shape"/>
<feColorMatrix in="SourceAlpha" type="matrix" values="0 0 0 0 0 0 0 0 0 0 0 0 0 0 0 0 0 0 127 0" result="hardAlpha"/>
<feOffset dx="-0.515212" dy="-0.515212"/>
<feGaussianBlur stdDeviation="0.343474"/>
<feComposite in2="hardAlpha" operator="arithmetic" k2="-1" k3="1"/>
<feColorMatrix type="matrix" values="0 0 0 0 0.41176 0 0 0 0 0.47451 0 0 0 0 1 0 0 0 0.3 0"/>
<feBlend mode="normal" in2="shape" result="effect2_innerShadow_0_385"/>
</filter>
<filter id="filter1_i_0_385" x="0.407882" y="0.0647503" width="31.1436" height="33.9993" filterUnits="userSpaceOnUse" color-interpolation-filters="sRGB">
<feFlood flood-opacity="0" result="BackgroundImageFix"/>
<feBlend mode="normal" in="SourceGraphic" in2="BackgroundImageFix" result="shape"/>
<feColorMatrix in="SourceAlpha" type="matrix" values="0 0 0 0 0 0 0 0 0 0 0 0 0 0 0 0 0 0 127 0" result="hardAlpha"/>
<feOffset/>
<feGaussianBlur stdDeviation="0.171737"/>
<feComposite in2="hardAlpha" operator="arithmetic" k2="-1" k3="1"/>
<feColorMatrix type="matrix" values="0 0 0 0 1 0 0 0 0 1 0 0 0 0 1 0 0 0 0.6 0"/>
<feBlend mode="normal" in2="shape" result="effect1_innerShadow_0_385"/>
</filter>
<filter id="filter2_i_0_385" x="0.407882" y="0.0647503" width="31.1436" height="33.9993" filterUnits="userSpaceOnUse" color-interpolation-filters="sRGB">
<feFlood flood-opacity="0" result="BackgroundImageFix"/>
<feBlend mode="normal" in="SourceGraphic" in2="BackgroundImageFix" result="shape"/>
<feColorMatrix in="SourceAlpha" type="matrix" values="0 0 0 0 0 0 0 0 0 0 0 0 0 0 0 0 0 0 127 0" result="hardAlpha"/>
<feOffset/>
<feGaussianBlur stdDeviation="0.0858686"/>
<feComposite in2="hardAlpha" operator="arithmetic" k2="-1" k3="1"/>
<feColorMatrix type="matrix" values="0 0 0 0 1 0 0 0 0 1 0 0 0 0 1 0 0 0 0.6 0"/>
<feBlend mode="normal" in2="shape" result="effect1_innerShadow_0_385"/>
</filter>
<filter id="filter3_i_0_385" x="2.46965" y="5.2198" width="30.8128" height="26.6861" filterUnits="userSpaceOnUse" color-interpolation-filters="sRGB">
<feFlood flood-opacity="0" result="BackgroundImageFix"/>
<feBlend mode="normal" in="SourceGraphic" in2="BackgroundImageFix" result="shape"/>
<feColorMatrix in="SourceAlpha" type="matrix" values="0 0 0 0 0 0 0 0 0 0 0 0 0 0 0 0 0 0 127 0" result="hardAlpha"/>
<feOffset/>
<feGaussianBlur stdDeviation="0.0858686"/>
<feComposite in2="hardAlpha" operator="arithmetic" k2="-1" k3="1"/>
<feColorMatrix type="matrix" values="0 0 0 0 1 0 0 0 0 1 0 0 0 0 1 0 0 0 0.6 0"/>
<feBlend mode="normal" in2="shape" result="effect1_innerShadow_0_385"/>
</filter>
<filter id="filter4_i_0_385" x="2.2131" y="1.86887" width="30.1344" height="31.139" filterUnits="userSpaceOnUse" color-interpolation-filters="sRGB">
<feFlood flood-opacity="0" result="BackgroundImageFix"/>
<feBlend mode="normal" in="SourceGraphic" in2="BackgroundImageFix" result="shape"/>
<feColorMatrix in="SourceAlpha" type="matrix" values="0 0 0 0 0 0 0 0 0 0 0 0 0 0 0 0 0 0 127 0" result="hardAlpha"/>
<feOffset dy="1.03042"/>
<feGaussianBlur stdDeviation="0.343474"/>
<feComposite in2="hardAlpha" operator="arithmetic" k2="-1" k3="1"/>
<feColorMatrix type="matrix" values="0 0 0 0 1 0 0 0 0 1 0 0 0 0 1 0 0 0 0.039 0"/>
<feBlend mode="normal" in2="shape" result="effect1_innerShadow_0_385"/>
</filter>
<filter id="filter5_i_0_385" x="2.46868" y="1.86863" width="31.886" height="30.6911" filterUnits="userSpaceOnUse" color-interpolation-filters="sRGB">
<feFlood flood-opacity="0" result="BackgroundImageFix"/>
<feBlend mode="normal" in="SourceGraphic" in2="BackgroundImageFix" result="shape"/>
<feColorMatrix in="SourceAlpha" type="matrix" values="0 0 0 0 0 0 0 0 0 0 0 0 0 0 0 0 0 0 127 0" result="hardAlpha"/>
<feOffset/>
<feGaussianBlur stdDeviation="0.171737"/>
<feComposite in2="hardAlpha" operator="arithmetic" k2="-1" k3="1"/>
<feColorMatrix type="matrix" values="0 0 0 0 1 0 0 0 0 1 0 0 0 0 1 0 0 0 0.6 0"/>
<feBlend mode="normal" in2="shape" result="effect1_innerShadow_0_385"/>
</filter>
<filter id="filter6_i_0_385" x="2.46868" y="1.86863" width="31.886" height="30.6911" filterUnits="userSpaceOnUse" color-interpolation-filters="sRGB">
<feFlood flood-opacity="0" result="BackgroundImageFix"/>
<feBlend mode="normal" in="SourceGraphic" in2="BackgroundImageFix" result="shape"/>
<feColorMatrix in="SourceAlpha" type="matrix" values="0 0 0 0 0 0 0 0 0 0 0 0 0 0 0 0 0 0 127 0" result="hardAlpha"/>
<feOffset/>
<feGaussianBlur stdDeviation="0.0858686"/>
<feComposite in2="hardAlpha" operator="arithmetic" k2="-1" k3="1"/>
<feColorMatrix type="matrix" values="0 0 0 0 1 0 0 0 0 1 0 0 0 0 1 0 0 0 0.6 0"/>
<feBlend mode="normal" in2="shape" result="effect1_innerShadow_0_385"/>
</filter>
<filter id="filter7_i_0_385" x="2.46868" y="1.86863" width="31.886" height="30.6911" filterUnits="userSpaceOnUse" color-interpolation-filters="sRGB">
<feFlood flood-opacity="0" result="BackgroundImageFix"/>
<feBlend mode="normal" in="SourceGraphic" in2="BackgroundImageFix" result="shape"/>
<feColorMatrix in="SourceAlpha" type="matrix" values="0 0 0 0 0 0 0 0 0 0 0 0 0 0 0 0 0 0 127 0" result="hardAlpha"/>
<feOffset/>
<feGaussianBlur stdDeviation="0.0858686"/>
<feComposite in2="hardAlpha" operator="arithmetic" k2="-1" k3="1"/>
<feColorMatrix type="matrix" values="0 0 0 0 1 0 0 0 0 1 0 0 0 0 1 0 0 0 0.6 0"/>
<feBlend mode="normal" in2="shape" result="effect1_innerShadow_0_385"/>
</filter>
<radialGradient id="paint0_radial_0_385" cx="0" cy="0" r="1" gradientUnits="userSpaceOnUse" gradientTransform="translate(19.8162 0.066524) rotate(96.4357) scale(34.2132 30.6064)">
<stop offset="0.018757" stop-color="#4F7AFF"/>
<stop offset="0.510566" stop-color="white" stop-opacity="0"/>
</radialGradient>
<radialGradient id="paint1_radial_0_385" cx="0" cy="0" r="1" gradientUnits="userSpaceOnUse" gradientTransform="translate(3.49664 6.06617) rotate(45.9956) scale(22.9963 34.1434)">
<stop offset="0.007027" stop-color="#B6B8FF"/>
<stop offset="0.775471" stop-color="white" stop-opacity="0"/>
</radialGradient>
<radialGradient id="paint2_radial_0_385" cx="0" cy="0" r="1" gradientUnits="userSpaceOnUse" gradientTransform="translate(13.9338 17.0652) rotate(31.8639) scale(20.7456 19.004)">
<stop offset="0.413882" stop-color="white" stop-opacity="0"/>
<stop offset="1" stop-color="#8879FD"/>
</radialGradient>
<radialGradient id="paint3_radial_0_385" cx="0" cy="0" r="1" gradientUnits="userSpaceOnUse" gradientTransform="translate(26.0019 5.06614) rotate(108.625) scale(23.2676 21.3144)">
<stop offset="0.002475" stop-color="#8476FF"/>
<stop offset="0.637758" stop-color="white" stop-opacity="0.011765"/>
</radialGradient>
<radialGradient id="paint4_radial_0_385" cx="0" cy="0" r="1" gradientUnits="userSpaceOnUse" gradientTransform="translate(23.4652 5.86266) rotate(121.872) scale(29.2723 21.9502)">
<stop offset="0.928993" stop-color="#FFB000" stop-opacity="0"/>
<stop offset="1" stop-color="#FF9E00"/>
</radialGradient>
<linearGradient id="paint5_linear_0_385" x1="0.409492" y1="21.8966" x2="28.4644" y2="9.34054" gradientUnits="userSpaceOnUse">
<stop offset="0.496183" stop-color="white"/>
<stop offset="1" stop-color="#90E0FF" stop-opacity="0.533333"/>
</linearGradient>
<radialGradient id="paint6_radial_0_385" cx="0" cy="0" r="1" gradientUnits="userSpaceOnUse" gradientTransform="translate(9.4257 11.2726) rotate(43.1256) scale(25.0597 20.8903)">
<stop offset="0.902996" stop-color="#924FFF" stop-opacity="0"/>
<stop offset="1" stop-color="#924FFF" stop-opacity="0.545098"/>
</radialGradient>
<radialGradient id="paint7_radial_0_385" cx="0" cy="0" r="1" gradientUnits="userSpaceOnUse" gradientTransform="translate(9.34121 0.638062) rotate(65.1056) scale(11.9546 17.7495)">
<stop stop-color="#8CA4FF"/>
<stop offset="0.994528" stop-color="#8CA4FF" stop-opacity="0"/>
</radialGradient>
<radialGradient id="paint8_radial_0_385" cx="0" cy="0" r="1" gradientUnits="userSpaceOnUse" gradientTransform="translate(0.409488 15.9051) rotate(8.38757) scale(12.7161 15.2863)">
<stop offset="0.008711" stop-color="#F477FA" stop-opacity="0.988235"/>
<stop offset="0.825691" stop-color="#F477FA" stop-opacity="0"/>
</radialGradient>
<radialGradient id="paint9_radial_0_385" cx="0" cy="0" r="1" gradientUnits="userSpaceOnUse" gradientTransform="translate(15.9813 17.0648) rotate(-90) scale(16.9985 18.561)">
<stop offset="0.008065" stop-color="white" stop-opacity="0"/>
<stop offset="0.9451" stop-color="white" stop-opacity="0"/>
<stop offset="0.984962" stop-color="white"/>
</radialGradient>
<radialGradient id="paint10_radial_0_385" cx="0" cy="0" r="1" gradientUnits="userSpaceOnUse" gradientTransform="translate(7.32879 29.6015) rotate(-53.8173) scale(31.1121 22.5654)">
<stop offset="0.941826" stop-color="#4155FF" stop-opacity="0"/>
<stop offset="1" stop-color="#4155FF" stop-opacity="0.494118"/>
</radialGradient>
<radialGradient id="paint11_radial_0_385" cx="0" cy="0" r="1" gradientUnits="userSpaceOnUse" gradientTransform="translate(4.18368 5.20284) rotate(51.7881) scale(10.1692 18.226)">
<stop offset="0.009016" stop-color="white"/>
<stop offset="1" stop-color="white" stop-opacity="0"/>
</radialGradient>
<linearGradient id="paint12_linear_0_385" x1="25.6549" y1="2.64233" x2="6.84964" y2="30.4638" gradientUnits="userSpaceOnUse">
<stop offset="0.006995" stop-color="white" stop-opacity="0.619608"/>
<stop offset="1" stop-color="#FFE87B"/>
</linearGradient>
<radialGradient id="paint13_radial_0_385" cx="0" cy="0" r="1" gradientUnits="userSpaceOnUse" gradientTransform="translate(14.965 21.5786) rotate(-66.2051) scale(17.8777 20.2494)">
<stop offset="0.663743" stop-color="white" stop-opacity="0.011765"/>
<stop offset="0.999532" stop-color="#7C86FF" stop-opacity="0.384314"/>
</radialGradient>
<radialGradient id="paint14_radial_0_385" cx="0" cy="0" r="1" gradientUnits="userSpaceOnUse" gradientTransform="translate(10.5857 17.096) rotate(6.1165) scale(21.8872 17.9332)">
<stop offset="0.900111" stop-color="white" stop-opacity="0"/>
<stop offset="1" stop-color="#8D92FF" stop-opacity="0.219608"/>
</radialGradient>
<radialGradient id="paint15_radial_0_385" cx="0" cy="0" r="1" gradientUnits="userSpaceOnUse" gradientTransform="translate(22.34 1.8709) rotate(97.2903) scale(30.9406 31.3916)">
<stop offset="0.018757" stop-color="#4F7AFF"/>
<stop offset="0.506049" stop-color="white" stop-opacity="0"/>
</radialGradient>
<radialGradient id="paint16_radial_0_385" cx="0" cy="0" r="1" gradientUnits="userSpaceOnUse" gradientTransform="translate(5.63167 7.28681) rotate(35.6691) scale(21.8935 36.8665)">
<stop offset="0.007027" stop-color="#AAA3FF"/>
<stop offset="0.994528" stop-color="white" stop-opacity="0.011765"/>
</radialGradient>
<radialGradient id="paint17_radial_0_385" cx="0" cy="0" r="1" gradientUnits="userSpaceOnUse" gradientTransform="translate(11.3585 17.2162) rotate(24.3603) scale(20.6337 21.437)">
<stop offset="0.310789" stop-color="white" stop-opacity="0"/>
<stop offset="1" stop-color="#8B57FF"/>
</radialGradient>
<radialGradient id="paint18_radial_0_385" cx="0" cy="0" r="1" gradientUnits="userSpaceOnUse" gradientTransform="translate(28.673 6.38416) rotate(133.04) scale(22.7267 23.6116)">
<stop offset="0.000595" stop-color="#8CB2FF"/>
<stop offset="1" stop-color="white" stop-opacity="0"/>
</radialGradient>
<radialGradient id="paint19_radial_0_385" cx="0" cy="0" r="1" gradientUnits="userSpaceOnUse" gradientTransform="translate(18.4138 17.2162) rotate(-176.034) scale(17.0139 17.4772)">
<stop offset="0.008065" stop-color="white" stop-opacity="0"/>
<stop offset="0.9451" stop-color="white" stop-opacity="0"/>
<stop offset="0.984962" stop-color="white"/>
</radialGradient>
<radialGradient id="paint20_radial_0_385" cx="0" cy="0" r="1" gradientUnits="userSpaceOnUse" gradientTransform="translate(9.55526 28.5331) rotate(-52.2148) scale(29.0101 30.1397)">
<stop offset="0.897895" stop-color="#8CB2FF" stop-opacity="0"/>
<stop offset="1" stop-color="#8CB2FF" stop-opacity="0.705882"/>
</radialGradient>
<radialGradient id="paint21_radial_0_385" cx="0" cy="0" r="1" gradientUnits="userSpaceOnUse" gradientTransform="translate(24.4959 6.37927) rotate(119.931) scale(29.4279 21.3348)">
<stop offset="0.861437" stop-color="white" stop-opacity="0"/>
<stop offset="0.960517" stop-color="#FF922D" stop-opacity="0.494118"/>
<stop offset="1" stop-color="#FFC441"/>
</radialGradient>
<radialGradient id="paint22_radial_0_385" cx="0" cy="0" r="1" gradientUnits="userSpaceOnUse" gradientTransform="translate(11.6154 2.38623) rotate(62.2414) scale(11.0621 18.6274)">
<stop stop-color="#8CA4FF"/>
<stop offset="0.994528" stop-color="#8CA4FF" stop-opacity="0"/>
</radialGradient>
<radialGradient id="paint23_radial_0_385" cx="0" cy="0" r="1" gradientUnits="userSpaceOnUse" gradientTransform="translate(2.47111 16.1682) rotate(7.40727) scale(12.9881 17.7076)">
<stop offset="0.008711" stop-color="#F477FA" stop-opacity="0.988235"/>
<stop offset="0.825691" stop-color="#F477FA" stop-opacity="0"/>
</radialGradient>
<radialGradient id="paint24_radial_0_385" cx="0" cy="0" r="1" gradientUnits="userSpaceOnUse" gradientTransform="translate(18.4138 17.2153) rotate(-176.034) scale(17.0139 17.4772)">
<stop offset="0.008065" stop-color="white" stop-opacity="0"/>
<stop offset="0.9451" stop-color="white" stop-opacity="0"/>
<stop offset="0.984962" stop-color="white"/>
</radialGradient>
<radialGradient id="paint25_radial_0_385" cx="0" cy="0" r="1" gradientUnits="userSpaceOnUse" gradientTransform="translate(9.55528 28.5322) rotate(-50.3228) scale(29.4537 24.2279)">
<stop offset="0.941826" stop-color="#4155FF" stop-opacity="0"/>
<stop offset="1" stop-color="#4155FF" stop-opacity="0.494118"/>
</radialGradient>
<radialGradient id="paint26_radial_0_385" cx="0" cy="0" r="1" gradientUnits="userSpaceOnUse" gradientTransform="translate(6.3352 6.50689) rotate(48.2395) scale(9.66968 19.6555)">
<stop offset="0.009016" stop-color="white"/>
<stop offset="1" stop-color="white" stop-opacity="0"/>
</radialGradient>
<linearGradient id="paint27_linear_0_385" x1="2.47109" y1="21.5769" x2="31.1942" y2="10.2422" gradientUnits="userSpaceOnUse">
<stop stop-color="white"/>
<stop offset="1" stop-color="white" stop-opacity="0"/>
</linearGradient>
<linearGradient id="paint28_linear_0_385" x1="2.47109" y1="21.5769" x2="31.1942" y2="10.2422" gradientUnits="userSpaceOnUse">
<stop offset="0.496183" stop-color="white"/>
<stop offset="1" stop-color="#90E0FF" stop-opacity="0.533333"/>
</linearGradient>
<radialGradient id="paint29_radial_0_385" cx="0" cy="0" r="1" gradientUnits="userSpaceOnUse" gradientTransform="translate(27.5877 24.2816) rotate(-145.643) scale(27.6161 20.2891)">
<stop offset="0.929813" stop-color="white" stop-opacity="0"/>
<stop offset="0.999947" stop-color="white"/>
</radialGradient>
</defs>
</svg>
